<svg xmlns="http://www.w3.org/2000/svg" width="94" height="95" viewBox="0 0 94 95"><defs><style>.a{fill:#eb8d2a;}.b{fill:#fff;}</style></defs><g transform="translate(-992 -4949)"><rect class="a" width="94" height="95" rx="47" transform="translate(992 4949)"/><g transform="translate(196.084 4190.076)"><path class="b" d="M870.521,916.514V898.982c0-.02-.01-.036-.011-.055a1.06,1.06,0,0,0-.046-.228,1.1,1.1,0,0,0-.058-.193,2.259,2.259,0,0,0-.26-.347c-.014-.013-.02-.03-.035-.042a1.065,1.065,0,0,0-.13-.069.818.818,0,0,0-.431-.154,1.018,1.018,0,0,0-.145-.029H815.533a1.117,1.117,0,0,0-1.117,1.117v35.092a1.116,1.116,0,0,0,1.117,1.116H869.4a1.116,1.116,0,0,0,1.117-1.116V916.516ZM832.2,900.1h34.849l-8.729,10.689Zm36.086,2.015v12.75l-7.8-3.194ZM826.306,900.1l9.051,3.7-18.708,22.446V900.1Zm-9.657,29.638,7.586-9.1,30.716,12.322h-38.3Zm44.3,3.221-35.209-14.126,11.787-14.143,30.763,12.589v15.679Z" transform="translate(0 -99.657)"/><path class="b" d="M941.942,992.275c-3.785,0-6.75-1.864-6.75-4.244,0-2.418,2.9-4.241,6.75-4.241s6.749,1.823,6.749,4.241C948.691,990.411,945.726,992.275,941.942,992.275Zm0-6.252c-2.757,0-4.516,1.19-4.516,2.008s1.76,2.011,4.516,2.011,4.516-1.191,4.516-2.011S944.7,986.023,941.942,986.023Z" transform="translate(-99.473 -170.426)"/><path class="a" d="M894.022,776.865A16.843,16.843,0,0,0,877.2,793.686c0,9.814,9.665,20.329,13.827,24.4a4.3,4.3,0,0,0,6-.007c4.155-4.065,13.82-14.579,13.82-24.394A16.84,16.84,0,0,0,894.022,776.865Z" transform="translate(-51.706)"/><path class="b" d="M904.446,827.495a2.053,2.053,0,0,1-1.439-.582c-3.956-3.87-13.151-13.834-13.151-22.8a14.59,14.59,0,0,1,29.18,0c0,8.966-9.195,18.93-13.149,22.8A2.054,2.054,0,0,1,904.446,827.495Zm0-35.737a12.371,12.371,0,0,0-12.359,12.355c0,8.235,9.3,18.073,12.357,21.083C907.5,822.19,916.8,812.35,916.8,804.113A12.369,12.369,0,0,0,904.449,791.758Z" transform="translate(-62.133 -10.427)"/><path class="b" d="M942.1,848.283a6.529,6.529,0,1,1,6.526-6.53A6.537,6.537,0,0,1,942.1,848.283Zm0-10.824a4.3,4.3,0,1,0,4.293,4.294A4.3,4.3,0,0,0,942.1,837.459Z" transform="translate(-99.783 -48.067)"/></g></g></svg>