<svg xmlns="http://www.w3.org/2000/svg" width="30.901" height="30.901" viewBox="0 0 30.901 30.901"><defs><style>.a{fill:#fff;}</style></defs><g transform="translate(-1603.2 -3280.742)"><path class="a" d="M1617.262,3280.742h2.776a1.344,1.344,0,0,0,.175.042,14.9,14.9,0,0,1,5.756,1.764,15.359,15.359,0,0,1,7.671,9.739,22.874,22.874,0,0,1,.461,2.517v2.777c-.086.545-.146,1.1-.263,1.635a15.392,15.392,0,0,1-8.252,10.822,12.272,12.272,0,0,1-1.635.7c-.2.072-.311.023-.3-.207,0-.061,0-.121,0-.181q0-4.2,0-8.389c0-.474,0-.475.491-.476,1.328,0,2.656,0,3.983,0,.2,0,.356-.02.355-.284q-.009-2.112,0-4.224c0-.2-.08-.3-.286-.292-.312.006-.624,0-.936,0h-3.259c-.18,0-.349-.006-.347-.259.006-.815-.024-1.631.017-2.443a1.189,1.189,0,0,1,1.363-1.25q1.522,0,3.047,0c.384,0,.4-.014.4-.386q0-2.005,0-4.013c0-.381-.015-.4-.389-.4h-3.41a5.517,5.517,0,0,0-1.05.1,6.111,6.111,0,0,0-4.78,5.372c-.086.925-.034,1.849-.051,2.774-.009.505,0,.506-.5.507-.995,0-1.991.008-2.987,0-.286,0-.389.087-.386.38q.016,2.022,0,4.044c0,.289.091.388.382.384,1.006-.013,2.012-.006,3.018,0,.465,0,.467,0,.467.47q0,3.727,0,7.453c0,.745-.008,1.489-.012,2.233h-1.509c-.078-.017-.155-.042-.233-.051a15.071,15.071,0,0,1-5.7-1.76,15.371,15.371,0,0,1-7.672-9.735,22.844,22.844,0,0,1-.461-2.516V3294.8c.033-.208.07-.415.1-.623a15.5,15.5,0,0,1,11.448-12.981C1615.574,3280.985,1616.42,3280.876,1617.262,3280.742Z"/></g></svg>