<svg xmlns="http://www.w3.org/2000/svg" width="30.708" height="30.707" viewBox="0 0 30.708 30.707"><defs><style>.a{fill:#fff;}</style></defs><g transform="translate(-1674.818 -3280.839)"><path class="a" d="M1690.172,3280.839a15.353,15.353,0,1,0,15.354,15.354A15.354,15.354,0,0,0,1690.172,3280.839Zm9.809,20.4c-.084.06-.075.159-.1.243a5.683,5.683,0,0,1-4.421,4.42c-.085.021-.183.013-.243.1h-10.1c-.06-.085-.159-.075-.243-.1a5.684,5.684,0,0,1-4.425-4.436c-.016-.064.015-.162-.092-.186v-10.141c.126-.146.1-.337.154-.506a5.705,5.705,0,0,1,4.32-4.15c.1-.025.21-.017.286-.1h10.1c.083.09.2.085.306.108a5.518,5.518,0,0,1,2.581,1.328,5.657,5.657,0,0,1,1.783,3.1c.016.078.012.168.09.223Z"/><path class="a" d="M1690.212,3292.441a3.751,3.751,0,1,0,3.711,3.776A3.758,3.758,0,0,0,1690.212,3292.441Z"/><path class="a" d="M1697.913,3290.038a4.021,4.021,0,0,0-3.627-2.11c-2.752-.014-5.5,0-8.256,0a3.565,3.565,0,0,0-.372.01,4.131,4.131,0,0,0-3.754,4.147c0,1.373,0,2.746,0,4.118s0,2.718,0,4.077a4.048,4.048,0,0,0,.012.454,4.135,4.135,0,0,0,4.151,3.729q4.076,0,8.153,0a5.055,5.055,0,0,0,.659-.037,4.12,4.12,0,0,0,3.556-4.008c.015-2.821.006-5.642,0-8.463A3.726,3.726,0,0,0,1697.913,3290.038Zm-7.726,11.464a5.309,5.309,0,1,1,5.3-5.327A5.33,5.33,0,0,1,1690.187,3301.5Zm5.64-9.81a1.17,1.17,0,0,1-1.155-1.162,1.158,1.158,0,0,1,2.315.007A1.162,1.162,0,0,1,1695.827,3291.692Z"/></g></svg>