<svg xmlns="http://www.w3.org/2000/svg" width="31.221" height="31.221" viewBox="0 0 31.221 31.221"><defs><style>.a{fill:#fff;}</style></defs><g transform="translate(-1532.519 -3280.582)"><path class="a" d="M1547.375,3280.582h1.535a.882.882,0,0,0,.114.02c.369.018.735.055,1.1.1a15.3,15.3,0,0,1,2.988.681,15.654,15.654,0,0,1,9.243,8.316,15.015,15.015,0,0,1,1.365,5.39c0,.038.012.077.019.115v2a.963.963,0,0,0-.019.128,7.44,7.44,0,0,1-.089.957,15.6,15.6,0,0,1-4.432,8.95,15.155,15.155,0,0,1-1.441,1.274,15.542,15.542,0,0,1-8.228,3.246,2.386,2.386,0,0,0-.413.041h-1.926c-.038-.006-.076-.017-.114-.019-.468-.028-.932-.083-1.4-.157a15.609,15.609,0,0,1-13.12-14.4.887.887,0,0,0-.044-.255v-1.535a1.032,1.032,0,0,0,.045-.281,13.686,13.686,0,0,1,.171-1.511,15.607,15.607,0,0,1,14.214-13.023A2.1,2.1,0,0,0,1547.375,3280.582Zm2.1,13.542a.234.234,0,0,1-.022-.146c0-.368,0-.737,0-1.106,0-.183,0-.187-.192-.188h-2.887c-.183,0-.188,0-.188.193v10.667c0,.185.005.189.191.19h2.848c.228,0,.228,0,.228-.231q0-2.745,0-5.489a4.931,4.931,0,0,1,.027-.584,2.928,2.928,0,0,1,.262-.949,1.751,1.751,0,0,1,1.053-.929,2.364,2.364,0,0,1,1.2-.073,1.543,1.543,0,0,1,1.1.8,2.464,2.464,0,0,1,.251.695,4.979,4.979,0,0,1,.1,1.047q0,2.751,0,5.5c0,.208,0,.212.211.212h3.07a.09.09,0,0,0,.1-.1c0-.052,0-.1,0-.156q0-3.33,0-6.66a7.516,7.516,0,0,0-.054-.96,4.693,4.693,0,0,0-.491-1.622,3.3,3.3,0,0,0-1.535-1.483,4.392,4.392,0,0,0-2.693-.337,3.783,3.783,0,0,0-2.479,1.6C1549.54,3294.056,1549.526,3294.1,1549.474,3294.124Zm-8.909,4.086v5.345c0,.169.009.177.176.179h3.017c.206,0,.209,0,.209-.213V3292.9c0-.208,0-.211-.211-.211h-2.965c-.226,0-.227,0-.227.232Q1540.564,3295.563,1540.565,3298.21Zm-.321-9.03a2.012,2.012,0,1,0,2.016-2.031A2,2,0,0,0,1540.244,3289.18Z"/></g></svg>