<svg xmlns="http://www.w3.org/2000/svg" width="95" height="95" viewBox="0 0 95 95"><defs><style>.a{fill:#eb8d2a;}.b,.c{fill:none;stroke:#fff;stroke-width:2px;}.b{stroke-linejoin:round;}.c{stroke-miterlimit:10;}</style></defs><g transform="translate(-469 -4949)"><rect class="a" width="95" height="95" rx="47.5" transform="translate(469 4949)"/><g transform="translate(368.013 4714.01)"><rect class="b" width="56" height="42" transform="translate(120.987 262.99)"/><line class="c" x2="18" transform="translate(139.987 277.99)"/><line class="c" x2="28" transform="translate(134.987 273.99)"/><path class="b" d="M146,280l1.549,2.668,2.775-1.22-.269,3.1,2.941.693-1.984,2.342,1.984,2.342-2.941.694.269,3.1-2.775-1.22L146,295.16l-1.549-2.668-2.775,1.22.269-3.1L139,289.922l1.984-2.342L139,285.237l2.941-.693-.269-3.1,2.775,1.22Z" transform="translate(2.99 2.824)"/><path class="b" d="M126.831,263A5.831,5.831,0,0,1,121,268.831" transform="translate(0)"/><path class="b" d="M121,294a5.831,5.831,0,0,1,5.831,5.831" transform="translate(0 5.15)"/><path class="b" d="M164,299.831A5.831,5.831,0,0,1,169.831,294" transform="translate(7.143 5.15)"/><path class="b" d="M169.831,268.831A5.831,5.831,0,0,1,164,263" transform="translate(7.143)"/></g></g></svg>